<svg xmlns="http://www.w3.org/2000/svg" width="300" height="103" viewBox="0 0 300 103">
<defs>
</defs>

<path d="M58.5124,64.5176 C53.5445,73.5012 44.9736,65.7791 40.0822,68.067 C34.6041,70.6293 29.2454,68.5278 26.7458,63.2395 C25.0813,59.718 18.0207,61.114 15.091,54.9434 C13.9198,52.4765 15.2332,48.3318 14.0595,46.2603 C12.1352,42.8643 9.8571,40.8719 9.6731,37.4281 C9.48575,33.9218 12.8006,31.4203 13.9817,27.7251 C15.1867,23.9548 13.2132,17.7648 17.9305,15.7743 C17.9305,15.7743 26.1321,12.3135 26.1321,12.3135 C32.9396,-0.62927 40.2474,8.85619 46.0499,6.24089 C51.4083,3.82573 56.6176,5.76539 59.1786,10.8203 C61.3714,15.1484 72.9646,13.5569 71.4482,23.9754 C70.9978,27.07 71.9517,28.8347 73.9554,31.0431 C81.0078,38.8159 70.5123,44.3473 71.4557,50.0322 C72.2901,55.0603 69.1,59.3393 64.2449,60.3005 C61.4934,60.8453 59.8007,62.188 58.5124,64.5176 Z M59.1382,60.3554 C60.3776,53.3754 64.8035,49.3727 69.7401,46.7903 C66.9671,41.6596 68.1784,34.3143 69.9593,29.2747 C64.9262,26.1541 61.321,20.2567 60.2023,14.8884 C54.4071,15.4605 47.997,12.8039 44.0144,9.24086 C39.5341,12.627 32.8448,14.8608 27.0679,13.9038 C26.1806,19.8961 21.0583,24.8676 16.7437,27.8159 C18.5751,32.9952 18.6227,40.1244 15.8539,45.0267 C21.2298,48.1496 24.7677,54.0733 26.0396,59.5552 C31.4529,59.082 38.1004,61.1546 42.0655,65.1923 C46.6664,61.2405 53.2751,59.9232 59.1382,60.3554 Z " fill="rgb(147,41,142)"></path>
<path d="M65.0145,99.5385 C65.0145,99.5385 49.7473,74.7898 49.7473,74.7898 C61.6847,78.0787 60.6581,66.6382 67.3395,66.4055 C67.3395,66.4055 80.3706,89.494 80.3706,89.494 C76.5223,89.8692 73.1128,88.0302 69.1116,87.4167 C69.1116,87.4167 65.0145,99.5385 65.0145,99.5385 Z " fill="rgb(147,41,142)"></path>
<path d="M21.5879,98.2361 C21.5879,98.2361 17.3577,86.2219 17.3577,86.2219 C17.3577,86.2219 5.96498,88.8688 5.96498,88.8688 C5.96498,88.8688 17.8544,67.066 17.8544,67.066 C17.8544,67.066 23.8042,74.1855 23.8042,74.1855 C26.8181,77.792 31.724,75.8247 36.3096,74.0202 C36.3096,74.0202 21.5879,98.2361 21.5879,98.2361 Z " fill="rgb(147,41,142)"></path>
<path d="M186.232,42.9172 C186.232,42.9172 186.229,27.0692 186.229,27.0692 C186.229,27.0692 178.536,27.0737 178.536,27.0737 C178.536,27.0737 178.543,42.9411 178.543,42.9411 C178.543,42.9411 173.236,42.8526 173.236,42.8526 C173.236,42.8526 173.069,27.1824 173.069,27.1824 C172.546,27.0224 169.981,27.41 169.651,26.8955 C169.212,26.2094 169.366,24.6254 169.486,23.6251 C169.582,22.8164 171.723,22.6263 173.218,23.0981 C173.091,20.1854 173.17,17.9222 174.558,16.095 C176.27,13.8412 183.508,12.6685 183.62,15.4884 C183.784,19.6164 177.48,15.6987 178.608,22.5976 C178.608,22.5976 191.209,23.0055 191.209,23.0055 C191.209,23.0055 191.235,42.8886 191.235,42.8886 C191.235,42.8886 186.232,42.9172 186.232,42.9172 Z " fill="rgb(147,41,142)"></path>
<path d="M160.239,23.774 C160.63,24.9401 160.36,26.8796 159.493,26.9689 C158.291,27.0927 157.333,27.1145 155.37,26.7963 C154.749,32.3948 154.308,37.7167 156.704,38.7924 C157.373,39.0927 159.345,38.6279 159.768,39.0599 C160.683,39.9938 160.23,42.4353 159.846,42.9929 C156.195,43.8166 150.474,43.236 150.343,38.6715 C150.343,38.6715 150.012,27.1503 150.012,27.1503 C143.429,27.2087 137.965,26.5634 137.912,31.0051 C137.912,31.0051 137.771,42.9136 137.771,42.9136 C137.771,42.9136 132.755,42.8739 132.755,42.8739 C132.736,35.933 132.949,29.5121 132.437,23.0274 C134.177,22.9771 135.623,22.9506 136.391,23.0145 C137.063,23.0705 137.451,24.3134 137.677,25.2758 C142.635,19.9862 146.977,24.7327 150.081,22.1578 C150.051,21.1605 149.525,18.6473 150.501,18.1253 C151.292,17.7021 152.454,17.281 154.554,16.6548 C155.258,18.4767 155.07,20.3509 154.957,23.0235 C157.044,22.8774 158.865,22.6052 160.239,23.774 Z M147.178,25 C147.178,24.2972 146.609,23.7275 145.906,23.7275 C145.203,23.7275 144.633,24.2972 144.633,25 C144.633,25.7028 145.203,26.2725 145.906,26.2725 C146.609,26.2725 147.178,25.7028 147.178,25 Z " fill="rgb(147,41,142)"></path>
<path d="M107.927,75.5885 C108.638,76.0731 109.712,76.2773 110.342,75.8283 C110.802,75.5002 111.655,74.6672 111.727,73.7506 C111.727,73.7506 112.823,59.6287 112.823,59.6287 C112.823,59.6287 103.822,76.039 103.822,76.039 C103.191,76.1082 102.926,77.5332 102.33,77.6205 C101.203,77.7854 100.911,76.9865 100.952,76.0952 C100.952,76.0952 97.4835,58.6419 97.4835,58.6419 C97.4835,58.6419 93.2933,73.1038 93.2933,73.1038 C92.9812,74.181 93.4167,75.0348 93.9214,75.5433 C94.5854,76.2124 95.1619,75.9335 95.9873,75.9565 C95.9873,75.9565 95.9158,77.5533 95.9158,77.5533 C92.3471,77.3461 90.1686,78.1317 86.5322,77.0365 C89.8472,75.8748 90.7538,75.0254 91.4584,72.3397 C91.4584,72.3397 95.4805,57.0094 95.4805,57.0094 C95.7019,56.1656 95.3795,54.8882 95.0066,54.5469 C94.4916,54.0755 93.2953,54.1716 91.9088,53.4216 C94.3104,52.2592 97.0793,52.6994 99.7854,52.9796 C99.7854,52.9796 104.067,71.3421 104.067,71.3421 C104.067,71.3421 114.247,53.0376 114.247,53.0376 C116.403,52.7166 118.646,52.1309 121.171,53.4909 C119.05,53.9266 117.045,54.4668 116.813,56.9934 C116.813,56.9934 115.406,72.3742 115.406,72.3742 C115.316,73.3519 115.095,74.2207 115.494,75.0317 C115.913,75.8834 117.275,75.8108 118.422,77.2766 C118.422,77.2766 108.078,77.5712 108.078,77.5712 C108.078,77.5712 107.927,75.5885 107.927,75.5885 Z " fill="rgb(38,38,93)"></path>
<path d="M230.696,42.6635 C228.311,43.6532 225.973,43.4807 225.381,41.2615 C222.097,43.2499 218.417,44.0015 215.229,42.2704 C211.509,40.2503 210.285,36.2454 210.501,31.9976 C210.682,28.4422 212.459,25.4212 214.603,23.9196 C217.943,21.5797 221.739,22.4988 224.594,23.9928 C226.158,23.0544 228.14,22.6361 230.693,23.0599 C230.693,23.0599 230.696,42.6635 230.696,42.6635 Z M225.613,32.4392 C225.507,28.5905 222.647,26.0216 220.015,26.5612 C216.918,27.1959 215.701,29.951 215.649,32.9691 C215.588,36.4948 217.427,39.1836 220.531,39.2183 C223.724,39.2539 225.726,36.5212 225.613,32.4392 Z " fill="rgb(147,41,142)"></path>
<path d="M96.1479,36.3486 C99.7362,40.7652 106.314,39.0995 109.569,36.0454 C110.792,37.3308 111.258,38.3736 111.377,40.2627 C105.792,44.1684 97.4254,44.8394 92.331,39.5618 C87.0218,34.0616 86.9766,23.9255 92.3137,18.373 C97.1018,13.3916 105.327,13.6367 110.801,17.2589 C111.995,18.0487 110.919,21.0999 109.533,21.8055 C105.999,18.5404 99.3286,17.3118 95.8513,21.8964 C93.0223,25.6264 92.9178,32.3729 96.1479,36.3486 Z " fill="rgb(147,41,142)"></path>
<path d="M281.622,29.8144 C281.622,29.8144 281.236,42.8744 281.236,42.8744 C281.236,42.8744 276.234,42.9085 276.234,42.9085 C276.234,42.9085 275.997,23.2218 275.997,23.2218 C277.495,22.8339 278.312,22.9885 279.461,22.9757 C280.66,22.9624 281.014,23.8232 281.563,25.0451 C284.907,21.297 292.029,21.3752 293.869,26.0878 C295.95,31.417 294.219,37.2667 294.804,42.8422 C294.804,42.8422 289.763,42.8715 289.763,42.8715 C289.763,42.8715 289.498,29.3468 289.498,29.3468 C289.457,27.2474 287.168,26.4834 285.505,26.7407 C284.202,26.9422 281.683,27.7612 281.622,29.8144 Z " fill="rgb(147,41,142)"></path>
<path d="M274.531,34.5491 C273.938,40.1632 270.04,43.1135 265.036,43.3092 C259.027,43.5441 254.888,39.9344 254.435,33.9968 C253.916,27.2018 258.165,22.4488 264.51,22.4589 C270.821,22.469 275.321,27.0694 274.531,34.5491 Z M269.545,32.4768 C269.376,28.4362 266.718,25.9668 263.534,26.6721 C260.889,27.2581 259.587,29.8455 259.548,32.9996 C259.505,36.4667 261.398,39.19 264.513,39.1959 C267.672,39.2019 269.714,36.5385 269.545,32.4768 Z " fill="rgb(147,41,142)"></path>
<path d="M117.008,33.2499 C116.709,35.8248 118.141,37.9385 119.883,38.6596 C125.775,41.0984 129.13,34.3057 129.833,39.7935 C130.227,42.8621 119.452,45.5665 114.412,40.2096 C111.55,37.1676 111.053,32.1934 112.859,27.9325 C114.707,23.5716 119.387,22.0287 122.704,22.526 C128.257,23.3586 130.845,27.7427 130.307,33.2265 C130.307,33.2265 117.008,33.2499 117.008,33.2499 Z M125.798,30.113 C125.126,26.7173 122.988,26.064 120.866,26.4065 C119.113,26.6896 117.103,28.3112 117.379,30.3405 C120.922,30.5825 123.249,30.657 125.798,30.113 Z " fill="rgb(147,41,142)"></path>
<path d="M245.057,39.0228 C246.08,38.8922 246.229,42.5075 245.252,42.8137 C242.579,43.6339 240.398,43.3126 238.425,42.2538 C236.97,41.4736 235.554,39.4536 235.534,37.0223 C235.534,37.0223 235.45,26.8311 235.45,26.8311 C234.001,27.4205 232.021,27.1148 231.899,26.4677 C231.777,25.8207 231.824,24.191 231.897,23.5213 C231.969,22.8676 234.125,22.7656 235.457,22.9654 C235.645,22.1093 234.978,19.4352 235.737,18.6136 C236.766,17.498 239.107,16.641 240.819,17.1585 C240.051,19.0406 239.978,22.7711 241.816,22.9443 C243.14,23.069 245.355,22.5983 245.69,23.5723 C245.972,24.391 246.155,26.6222 245.369,26.8907 C244.483,27.1934 242.585,27.094 240.644,26.861 C240.644,26.861 240.626,36.0408 240.626,36.0408 C240.622,37.7853 242.026,39.4099 245.057,39.0228 Z " fill="rgb(147,41,142)"></path>
<path d="M198.166,34.0496 C198.371,36.5617 200.142,38.4423 201.663,38.8504 C204.241,39.5419 206.443,38.8675 208.437,37.337 C208.962,37.013 209.711,38.1692 209.937,38.708 C210.356,39.7032 210.659,41.2316 209.023,41.9595 C204.306,44.0574 198.662,43.7931 195.381,40.1878 C192.068,36.5473 192.089,30.1889 194.88,26.4108 C198.121,22.0226 204.024,21.4718 209.105,23.909 C210.33,24.4967 210.444,25.4709 210.159,26.4367 C209.939,27.1793 209.409,28.6457 208.414,28.6252 C206.471,26.8378 203.48,26.0369 200.758,27.3034 C198.847,28.1925 197.922,31.0594 198.166,34.0496 Z " fill="rgb(147,41,142)"></path>
<path d="M135.844,76.8815 C133.936,77.6414 133.269,77.8224 132.619,77.7519 C131.953,77.6797 131.157,77.1809 130.562,75.9623 C128.647,77.4964 126.143,78.5613 123.659,77.7669 C121.231,76.9905 119.679,74.2679 119.54,71.3327 C119.335,67.0191 121.5,63.5358 124.055,61.3208 C127.706,58.1544 132.43,58.8517 136.217,60.4585 C135.289,66.541 133.564,70.8705 134.097,75.7741 C135.687,74.3548 136.65,75.9861 135.844,76.8815 Z M132.294,62.0762 C131.997,59.9092 126.984,60.6281 125.751,62.6824 C121.498,69.7661 122.603,76.0393 126.507,76.0101 C130.439,75.9807 133.004,67.2682 132.294,62.0762 Z " fill="rgb(42,42,95)"></path>
<path d="M162.305,41.6493 C162.305,41.6493 162.257,23.907 162.257,23.907 C162.846,22.4108 166.989,22.3855 167.732,23.8287 C167.732,23.8287 167.612,42.8059 167.612,42.8059 C164.884,43.49 162.612,43.3753 162.305,41.6493 Z " fill="rgb(147,41,142)"></path>
<path d="M161.096,73.9379 C159.858,69.4641 161.243,65.259 164.091,61.7979 C166.47,60.0387 169.312,58.2184 172.673,59.5287 C174.561,60.2646 175.025,63.1049 174.001,65.0139 C171.957,68.8228 167.812,69.7449 164.182,71.0229 C163.576,72.8088 165.341,75.3476 166.839,75.6101 C168.638,75.9254 170.487,75.7547 172.377,73.99 C173.853,73.3262 174.466,75.1447 172.828,75.506 C170.838,77.3591 168.09,78.2629 165.663,77.903 C163.947,77.6486 161.67,76.0141 161.096,73.9379 Z M171.408,63.5758 C171.931,62.0846 170.903,61.1673 170.461,60.9764 C168.265,60.0286 164.856,63.8346 164.234,68.9952 C167.173,68.4893 170.137,67.2026 171.408,63.5758 Z " fill="rgb(37,37,92)"></path>
<path d="M252.768,42.911 C252.768,42.911 247.767,42.8865 247.767,42.8865 C247.767,42.8865 247.767,23.1135 247.767,23.1135 C247.767,23.1135 252.768,23.089 252.768,23.089 C252.768,23.089 252.768,42.911 252.768,42.911 Z " fill="rgb(147,41,142)"></path>
<path d="M162.257,23.907 C162.257,23.907 162.305,41.6493 162.305,41.6493 C161.071,40.9336 159.769,43.0734 162.094,43.2153 C162.204,43.7897 161.314,44.3755 160.565,44.0363 C160.229,43.8844 159.788,43.768 159.846,42.9929 C160.23,42.4353 160.683,39.9938 159.768,39.0599 C159.345,38.6279 157.373,39.0927 156.704,38.7924 C154.308,37.7167 154.749,32.3948 155.37,26.7963 C157.333,27.1145 158.291,27.0927 159.493,26.9689 C160.36,26.8796 160.63,24.9401 160.239,23.774 C160.659,24.1044 161.707,24.054 162.257,23.907 Z " fill="rgb(253,251,253)"></path>
<path d="M194.633,62.5123 C193.38,66.0963 203.466,68.5836 200.241,74.7343 C198.479,78.0944 194.319,78.921 190.937,77.1112 C189.702,76.4504 188.893,75.5927 188.847,74.5085 C188.805,73.5363 191.008,72.7586 191.376,73.4999 C192.132,75.0248 192.795,76.0505 194.481,76.2824 C195.913,76.4794 197.837,75.5238 198.014,73.5661 C198.321,70.1679 189.119,67.6278 192.334,61.7108 C193.637,59.3128 197.415,58.3644 200.302,59.6101 C201.593,60.1675 201.888,60.7427 202.211,61.5085 C202.729,62.739 200.733,63.7867 200.338,63.0996 C199.405,61.4807 198.468,60.619 197.473,60.6246 C196.07,60.6326 195,61.4642 194.633,62.5123 Z " fill="rgb(37,37,92)"></path>
<path d="M142.661,74.928 C143.159,76.3901 146.171,75.1962 146.65,73.7546 C147.48,76.6532 144.928,77.2019 143.371,77.6859 C141.645,78.2227 139.085,77.2481 139.397,74.9283 C139.397,74.9283 141.247,61.1845 141.247,61.1845 C139.697,61.9399 137.747,60.7787 138.127,60.3133 C139.161,59.348 140.653,59.767 141.363,59.7378 C142.746,59.6809 141.396,55.4002 143.486,54.7221 C144.191,54.4933 145.533,54.6293 145.628,55.5438 C145.8,57.1934 144.176,59.9419 145.744,59.8232 C146.467,59.7684 147.81,59.4013 149.279,60.2193 C148.333,61.4637 146.902,61.6664 144.878,61.0785 C144.878,61.0785 142.661,74.928 142.661,74.928 Z " fill="rgb(38,38,93)"></path>
<path d="M159.838,61.5358 C160.171,61.9792 161.249,62.1656 161.21,60.6762 C162.233,60.5998 163.443,60.8867 164.091,61.7979 C161.243,65.259 159.858,69.4641 161.096,73.9379 C160.491,73.5985 159.257,73.5052 158.794,74.301 C158.638,74.5702 158.943,74.6191 158.209,74.971 C157.465,72.9547 156.271,76.4405 154.921,75.5627 C154.638,75.3782 153.822,74.7977 153.974,73.9387 C153.974,73.9387 156.115,61.8016 156.115,61.8016 C156.63,60.9144 159.024,61.0722 159.838,61.5358 Z " fill="rgb(254,254,254)"></path>
<path d="M185.796,61.3851 C178.774,69.4172 183.188,79.6886 177.337,77.1897 C177.337,77.1897 179.68,61.2935 179.68,61.2935 C178.051,62.7912 176.519,61.5929 177.907,60.3733 C179.266,59.5672 180.603,59.2457 181.332,59.3671 C182.316,59.5309 182.938,60.4711 183.404,62.1702 C184.071,60.735 184.69,59.9852 185.973,59.4789 C187.438,58.9013 189.391,58.9438 190.165,60.9473 C190.462,61.7172 190.049,62.8444 189.868,63.312 C189.65,63.8719 188.535,64.4209 187.825,63.7529 C187.388,63.3423 187.019,62.6869 185.796,61.3851 Z " fill="rgb(38,38,93)"></path>
<path d="M159.838,61.5358 C159.024,61.0722 156.63,60.9144 156.115,61.8016 C156.115,61.8016 153.974,73.9387 153.974,73.9387 C153.822,74.7977 154.638,75.3782 154.921,75.5627 C156.271,76.4405 157.465,72.9547 158.209,74.971 C157.986,76.3644 156.337,77.2703 155.281,77.6719 C153.962,78.1736 150.916,77.7527 151.136,76.0082 C151.136,76.0082 152.992,61.2798 152.992,61.2798 C151.235,61.6101 150.362,61.3756 149.777,60.037 C151.326,59.6861 152.357,59.8158 153.038,59.55 C154.319,59.05 152.918,55.0798 155.495,54.6981 C156.663,54.5251 157.758,55.3569 156.955,57.0179 C156.618,57.7149 156.572,59.056 156.834,59.4423 C157.09,59.8222 158.118,59.958 159.034,59.7474 C160.297,59.4573 160.82,60.8685 159.838,61.5358 Z " fill="rgb(37,37,92)"></path>
<path d="M100.952,76.0952 C100.952,76.0952 95.9873,75.9565 95.9873,75.9565 C95.1619,75.9335 94.5854,76.2124 93.9214,75.5433 C93.4167,75.0348 92.9812,74.181 93.2933,73.1038 C93.2933,73.1038 97.4835,58.6419 97.4835,58.6419 C97.4835,58.6419 100.952,76.0952 100.952,76.0952 Z " fill="rgb(254,254,254)"></path>
<path d="M107.927,75.5885 C107.927,75.5885 103.822,76.039 103.822,76.039 C103.822,76.039 112.823,59.6287 112.823,59.6287 C112.823,59.6287 111.727,73.7506 111.727,73.7506 C111.655,74.6672 110.802,75.5002 110.342,75.8283 C109.712,76.2773 108.638,76.0731 107.927,75.5885 Z " fill="rgb(254,254,254)"></path>
<path d="M167.79,14.2356 C168.335,16.2974 168.259,18.6693 167.466,19.0474 C166.475,19.52 163.672,19.5426 162.673,18.941 C161.732,18.3744 162.069,15.7287 162.442,14.1306 C164.076,13.9394 166.072,13.8217 167.79,14.2356 Z " fill="rgb(147,41,142)"></path>
<path d="M191.071,14.5034 C191.854,14.9592 191.797,17.5995 191.469,18.3976 C191.049,19.4234 188.492,19.0875 187.424,19.0512 C185.781,18.9953 185.018,17.1009 185.896,14.5331 C186.864,13.8847 189.196,13.4123 191.071,14.5034 Z " fill="rgb(147,41,142)"></path>
<path d="M248.179,14.5377 C248.811,13.7267 251.694,13.633 252.452,14.1299 C253.4,14.7511 253.3,17.5459 252.839,18.5737 C252.41,19.5319 250.211,19.3689 249.304,19.3067 C247.982,19.2159 246.191,17.0879 248.179,14.5377 Z " fill="rgb(147,41,142)"></path>


<path d="M59.1382,60.3554 C53.2751,59.9232 46.6664,61.2405 42.0655,65.1923 C38.1004,61.1546 31.4529,59.082 26.0396,59.5552 C24.7677,54.0733 21.2298,48.1496 15.8539,45.0267 C18.6227,40.1244 18.5751,32.9952 16.7437,27.8159 C21.0583,24.8676 26.1806,19.8961 27.0679,13.9038 C32.8448,14.8608 39.5341,12.627 44.0144,9.24086 C47.997,12.8039 54.4071,15.4605 60.2023,14.8884 C61.321,20.2567 64.9262,26.1541 69.9593,29.2747 C68.1784,34.3143 66.9671,41.6596 69.7401,46.7903 C64.8035,49.3727 60.3776,53.3754 59.1382,60.3554 Z M36.31,32.5854 C36.31,32.5854 43.2276,39.6266 43.2276,39.6266 C43.2276,39.6266 53.7785,22.7984 53.7785,22.7984 C45.8906,17.035 35.5585,18.5612 29.6255,25.2672 C23.6446,32.0274 23.7138,42.3782 29.571,49.0038 C35.6458,55.8756 45.9937,57.0769 53.3782,51.835 C60.4457,46.8181 63.344,37.1776 58.8147,28.7486 C58.8147,28.7486 43.2399,47.9583 43.2399,47.9583 C43.2399,47.9583 31.9917,36.706 31.9917,36.706 C33.1449,35.2369 34.2046,33.8838 36.31,32.5854 Z " fill="rgb(254,254,254)"></path>

<path d="M225.613,32.4392 C225.726,36.5212 223.724,39.2539 220.531,39.2183 C217.427,39.1836 215.588,36.4948 215.649,32.9691 C215.701,29.951 216.918,27.1959 220.015,26.5612 C222.647,26.0216 225.507,28.5905 225.613,32.4392 Z " fill="rgb(255,255,255)"></path>
<path d="M269.545,32.4768 C269.714,36.5385 267.672,39.2019 264.513,39.1959 C261.398,39.19 259.505,36.4667 259.548,32.9996 C259.587,29.8455 260.889,27.2581 263.534,26.6721 C266.718,25.9668 269.376,28.4362 269.545,32.4768 Z " fill="rgb(255,255,255)"></path>
<path d="M125.798,30.113 C123.249,30.657 120.922,30.5825 117.379,30.3405 C117.103,28.3112 119.113,26.6896 120.866,26.4065 C122.988,26.064 125.126,26.7173 125.798,30.113 Z " fill="rgb(255,255,255)"></path>
<path d="M132.294,62.0762 C133.004,67.2682 130.439,75.9807 126.507,76.0101 C122.603,76.0393 121.498,69.7661 125.751,62.6824 C126.984,60.6281 131.997,59.9092 132.294,62.0762 Z " fill="rgb(255,255,255)"></path>
<path d="M171.408,63.5758 C170.137,67.2026 167.173,68.4893 164.234,68.9952 C164.856,63.8346 168.265,60.0286 170.461,60.9764 C170.903,61.1673 171.931,62.0846 171.408,63.5758 Z " fill="rgb(255,255,255)"></path>
<path d="M36.31,32.5854 C34.2046,33.8838 33.1449,35.2369 31.9917,36.706 C31.9917,36.706 43.2399,47.9583 43.2399,47.9583 C43.2399,47.9583 58.8147,28.7486 58.8147,28.7486 C63.344,37.1776 60.4457,46.8181 53.3782,51.835 C45.9937,57.0769 35.6458,55.8756 29.571,49.0038 C23.7138,42.3782 23.6446,32.0274 29.6255,25.2672 C35.5585,18.5612 45.8906,17.035 53.7785,22.7984 C53.7785,22.7984 43.2276,39.6266 43.2276,39.6266 C43.2276,39.6266 36.31,32.5854 36.31,32.5854 Z " fill="rgb(37,37,92)"></path>
</svg>